<svg xmlns="http://www.w3.org/2000/svg" xmlns:xlink="http://www.w3.org/1999/xlink" width="1em" height="1em" viewBox="0 0 66 57" fill="#fff" fill-rule="evenodd" stroke="#000" stroke-linecap="round" stroke-linejoin="round"><use xlink:href="#A" x=".5" y=".5"/><symbol id="A" overflow="visible"><g stroke="none" fill-rule="nonzero"><path d="M61.552 29.151c1.21.9 2.456 1.528 2.456 2.956 0 .397-.52.813-1.688.813-.894 0-1.87-.252-2.3-.91-.374-.47.164-1.123-.164-1.604-.24-.405-.82-.206-1.172-.405-.44-.237-.49-.447-.775-1.043-.32-.726-1.413-1.948-2.704-3.246-1.146-1.096-2.268-1.654-2.81-1.604-.35.038-.48.038-.84.038-.917 0-1.738.9-3.067 1.45-.936.41-1.474.65-2.078.726l-.19.244 1.207-.038 3.765-.153c1.146 0 1.75 1.03 2.192 2.14.886 2.215 2.226 5.423 3.788 8.096.787 1.25 1.42 2.062 1.42 3.617 0 .466-.038 1.107-.687 1.107-.878 0-3.15-.917-3.15-1.93 0-.775.603-1.1.603-1.87 0-.48-.764-.4-.886-.852-.573-2.387-1.26-4.735-2.59-6.148-.695-.74-.78-1.062-1.46-1.062a3.17 3.17 0 0 0-1.062.206c-1.856.695-4.323 2.765-7.4 3.69-1.176.355-1.375-.328-2.597-.084h.084c-.974.2-1.757.77-3.082 1.134-1.91.535-5.064.764-7.623.432l-5.17-.554c-.77 2.223-2.433 5.133-4.862 6.275-1.298.565-1.7 1.375-1.298 2.84.496 1.818 2.108 3.158 2.963 4.7.764 1.337 2.024 3.445 3.36 4.136s2.14 1.707 2.14 2.56c0 .405-.16.642-.573.642H22.64c-.41 0-.61-.237-.695-.405-.37-.687-.115-1.337-.603-1.94-.367-.458-.65-.328-1.088-.687-.813-.77-.2-1.214-.813-2.188-1.7-2.673-2.425-3.33-3.857-5.232-.764-1.016-1.772-1.497-1.772-2.826 0-1.612 1.62-1.917 1.577-3.53-1.206.9-2.634 1.458-4.132 1.612-.244.053-.878.535-1.17.863-.65.65-.9 1.287-.978 2.28-.19 2.177-.642 4.407-.363 6.59.363 1.413.61 1.894 1.776 2.654.726.496 1.592 1.146 1.66 2.2 0 .267-.076.61-.474.61h-2.88a.74.74 0 0 1-.611-.367c-.317-.558-.115-.962-.237-1.62-.28-1.33-1.795-1.26-1.795-2.635 0-.397.248-.928.294-1.783.084-1.856.642-4.858.084-8.493-.248-2.112 1.94-2.196 3.07-4.063.687-1.05.485-.6.878-1.375.412-.813.328-1.382.294-1.86 0-.61-.61-1.902-.202-4.533.164-1.176.726-2.345 1.5-3.36 0-.038 0-.206-.248-.206-1.13.076-1.13-.202-1.91-.202a1.68 1.68 0 0 0-1.413.92.91.91 0 0 1-.523-.764c0-.4.088-.775.49-1.176.153-.168 0-.24-.214-.24-.878 0-1.72 1.092-1.932 1.86-.527-.084-.565-.77-.813-.77s-.397.36-.397.726c0 2.597 4.2 3.17 4.2 6.546 0 3.934-4.728 3.132-4.728 4.583 0 .283.206.523.573.687-.168.363-.573.535-1.02.535-1.05 0-1.822-.775-1.822-1.825 0-2.14 2.876-2.177 2.876-3.804 0-.764-.48-1.012-.932-1.375C1.54 28.921 0 26.969 0 23.769c0-3.437 2.39-6.072 5.5-6.072 4.545 0 4.66 5.22 8.784 5.663 1.535-1.043 3.36-1.657 5.144-1.657 2.673 0 3.85.687 6.672.687 1.146 0 3.044-.317 5.308-1.91.855-.55 1.21-.68 1.978-1.375 1.783-1.528 3.437-4.533 3.437-6.676v.115c0-.687-.164-1.092-.477-1.092-.98 0-1.822.894-2.803 1.822-.61.65.332.932-1.058 1.703-.485.244-1.04-.202-1.577-.202-1.092 0-1.58-1.298-1.58-2.43 0-.573.447-.726.695-1.26.56-1.092.527-1.505 1.046-2.597.328-.726.894-1.222.848-1.74 0-.2-.16-.32-.16-.523 0-1.092 1.45-1.822 1.45-2.914 0-.61-.687-.894-.855-1.382s-.03-.596-.03-.596c.03-.092.115-.126.19-.126.573 0 .813.6 1.344.924.038-.726-.202-.886-.202-1.413 0-.283-.05-.718.244-.718.367 0 .313.48.65.718.397.328.764.286 1.21.573.573.363.886.978 1.092 1.008.565.092.726-.603.443-1.008.65-.038 1.3.48 2.165.48 1.337 0 1.776.363 2.024.56.852.726 1.012 1.298 1.91 1.298.48 0 .726-.397.848-.573.642.496.68 1.707 0 2.727.283.84 1.482.924 2.055 1.337s.496.61.905.848a.71.71 0 0 0 .84 0c.28 1.146-.687 2.15-1.87 2.303.05 1.46 1.59 2.352 2.272 2.673-.405.897-1.127 1.184-1.787 1.337.214.9 1.176 2.196.687 3.36-.435-.202-1.092 0-1.092.65 0 .726.943 1.085-.038 1.615-.44.248-.527.9.283 1.5 1.05-.3 2.062-.244 3.235-.244.726 0 1.696-.2 2.345-.2 1.222 0 1.94.48 2.84 1.45 2.215 2.425 4.24 4.965 6.56 6.72" fill="#231f20"/><path d="M1.465 22.67c.485 0 1.375-2.673 3.19-2.673.535 0 .65.206.65.405 0 .367-.6.687-.6 1.165 0 .084.038.206.206.206.435 0 .764-.97 2.585-.97a4.89 4.89 0 0 1 1.333.164c.19.05.61.237.45-.32-.45-1.268-1.818-2.433-3.773-2.433s-3.96 1.745-4.2 3.838c-.038.363-.038.61.168.61m33.6-16.666c-.527-.2-.61-.48-.458-1.13.122-.687.164-.978-.164-1.058-.28-.07-.65.076-1.008.485-.328.45-.848.974-1.016 1.424-.153.56.535.485.038 1.413l-1.45 2.967c-.367 1.138-.65 1.29-.848 1.642-.248.336.32.363.962.172.687-.244.764.565.496 1.134-.206.405-.046.565.516.115.535-.405-.283-.764-.076-2.024a7.18 7.18 0 0 1 1.165-2.994c.622-1.02 1.138-1.74 2.188-1.375.412.2.2-.527-.36-.77m22.52 34.363c.206 0 .237-.283.237-.523 0-.573-.313-1.413-.764-1.787-.115.848-.535 1.413-.535 1.787 0 .283.764.523 1.054.523m4.965-8.134c.317 0 .764-.115.764-.36 0-.49-.764-1.337-1.375-1.54.45.848 0 1.898.573 1.898m-22.13-11.051c4.575 2.1 4.292 5.95 4.697 4.972a3.97 3.97 0 0 0-.848-4.124c-1.253-1.45-1.75-1.092-1.253-2.303 1.978-4.823 3.246-12.106-2.673-14.665-.687-.28-1.245-.28-1.245-.153s.642.325 1.413.855c3.96 2.62 2.75 9.796-.897 13.275-1.222 1.176-.642 1.45.848 2.14M24.78 54.765c.32 0 .153-.474.038-.676-.286-.496-.764-.813-1.26-1.02.134.48.168 1.696.65 1.696zm-13.844 0c.32 0 .076-.474-.038-.676-.286-.496-.855-.77-1.298-.974.115.48.2 1.65.687 1.65zm16.712-27.436c2.52-.283 2.925-.852 3.368-2.77.2-.878.84-1.806 1.413-2.425.367-.397.733-.718 1.096-1.325.115-.237.2-.432 0-.37l-1.505 1.058a11.8 11.8 0 0 1-5.579 1.86c-2.303 0-4.285-.687-6.397-.687-6.317 0-8.67 4.946-8.325 7.817.038.443.107.477.267.477.447 0 .8-1.692 2.398-3.193 2.303-2.177 4.812-3.437 8.38-3.437 2.59 0 3.636.84 3.636 1.17 0 .642-1.096.68-1.004 1.337 0 .202.6.687 2.29.485" fill="#656263"/></g></symbol></svg>